<svg width="19" height="18" viewBox="0 0 19 18" fill="none" xmlns="http://www.w3.org/2000/svg">
<path d="M9.5 0C4.27874 0 0 4.0887 0 9.03516C0 13.9529 4.23975 18 9.5 18C14.7537 18 19 13.959 19 9.03516C19 4.0887 14.7213 0 9.5 0ZM11.1699 16.7871C10.6356 16.8926 10.0678 16.9453 9.5 16.9453C8.9322 16.9453 8.3644 16.8926 7.83008 16.7871V14.3192C7.83008 13.7285 7.99707 13.5176 8.21973 13.2328C8.33308 13.11 8.4015 12.9998 8.90987 12.2731L8.05273 12.1465C5.84835 11.8407 4.98005 10.7542 4.6349 9.91049C4.18959 8.78206 4.42341 7.36867 5.22503 6.47232C5.34752 6.33513 5.44769 6.10304 5.35868 5.86052C5.19154 5.37534 5.21387 4.60547 5.3252 4.31007C5.91547 4.39 6.52241 4.79059 7.0286 5.08008C7.26184 5.20903 7.38419 5.17497 7.49609 5.18555C7.90285 5.10535 8.53733 4.9113 9.51116 4.9113C10.1123 4.9113 10.7469 4.99562 11.3704 5.1644C11.4819 5.16193 11.661 5.25174 11.9715 5.08008C12.5006 4.77466 13.087 4.3878 13.6748 4.31007C13.7861 4.60547 13.8085 5.37534 13.6415 5.86052C13.5523 6.10304 13.6525 6.33513 13.7751 6.47232C14.5766 7.3688 14.8104 8.78206 14.3651 9.91049C14.02 10.7542 13.1516 11.8407 10.9473 12.1465L10.0901 12.2731C10.6156 13.0243 10.671 13.1144 10.7804 13.2328C11.0029 13.5176 11.1699 13.7285 11.1699 14.3192V16.7871ZM12.2832 16.4813V14.3192C12.2832 13.7179 12.1496 13.3172 11.9714 13.0218C13.6636 12.5895 14.8661 11.6402 15.4004 10.2796C15.9682 8.84537 15.7122 7.13672 14.7658 5.95541C14.9329 5.24886 14.9329 4.12028 14.5321 3.59294C14.3539 3.36099 14.109 3.23437 13.7973 3.23437C13.7861 3.23437 13.7861 3.23437 13.7861 3.23437C12.9229 3.27859 12.2435 3.69044 11.5151 4.10971C10.8471 3.94093 10.168 3.85661 9.48884 3.85661C8.79869 3.85661 8.1084 3.95151 7.49624 4.10971C6.72941 3.67163 6.05651 3.2775 5.16936 3.23437C4.89104 3.23437 4.64606 3.36099 4.46791 3.59294C4.06725 4.12028 4.06725 5.24886 4.23424 5.95541C3.2878 7.13672 3.03181 8.8558 3.59961 10.2796C4.13393 11.6402 5.33636 12.5895 7.0286 13.0218C6.89046 13.2507 6.78116 13.5461 6.73811 13.9459C6.39629 14.0576 6.09985 14.0939 5.82414 14.0172C5.53336 13.9357 5.30679 13.7519 5.10993 13.4382C4.66781 12.7345 3.91475 12.1601 3.05732 12.2348L3.15517 13.2854C3.55221 13.2509 3.94736 13.6489 4.15263 13.9769C4.49125 14.5172 4.94743 14.8715 5.50886 15.0286C5.92561 15.1449 6.30656 15.1422 6.7168 15.0592V16.4813C3.47712 15.4054 1.11328 12.4735 1.11328 9.03516C1.11328 4.66878 4.89104 1.05469 9.5 1.05469C14.109 1.05469 17.8867 4.66878 17.8867 9.03516C17.8867 12.4735 15.5229 15.4054 12.2832 16.4813Z" fill="white"/>
</svg>
