<svg width="18" height="17" viewBox="0 0 18 17" fill="none" xmlns="http://www.w3.org/2000/svg">
<path d="M2.53018 16.776H14.7425C16.1377 16.776 17.2727 15.6736 17.2727 14.3185V2.45742C17.2727 1.10238 16.1377 0 14.7425 0H2.53018C1.13502 0 0 1.10238 0 2.45742V14.3185C0 15.6736 1.13502 16.776 2.53018 16.776ZM1.01207 2.45742C1.01207 1.64442 1.69311 0.982966 2.53018 0.982966H14.7425C15.5796 0.982966 16.2606 1.64442 16.2606 2.45742V14.3185C16.2606 15.1315 15.5796 15.793 14.7425 15.793H2.53018C1.69311 15.793 1.01207 15.1315 1.01207 14.3185V2.45742Z" fill="white"/>
<path d="M8.63635 11.9297C11.1476 11.9297 13.1907 9.94535 13.1907 7.50636C13.1907 5.06737 11.1476 3.08301 8.63635 3.08301C6.12515 3.08301 4.08203 5.06737 4.08203 7.50636C4.08203 9.94535 6.12515 11.9297 8.63635 11.9297ZM8.63635 4.06597C10.5896 4.06597 12.1786 5.60928 12.1786 7.50636C12.1786 9.40343 10.5896 10.9467 8.63635 10.9467C6.68311 10.9467 5.0941 9.40343 5.0941 7.50636C5.0941 5.60928 6.68311 4.06597 8.63635 4.06597Z" fill="white"/>
<path d="M13.4092 3.82742C14.2363 3.82742 14.9092 3.17386 14.9092 2.37056C14.9092 1.56726 14.2363 0.913696 13.4092 0.913696C12.5821 0.913696 11.9092 1.56726 11.9092 2.37056C11.9092 3.17386 12.5821 3.82742 13.4092 3.82742ZM13.4092 1.88494C13.6848 1.88494 13.9092 2.10284 13.9092 2.37056C13.9092 2.63828 13.6848 2.85618 13.4092 2.85618C13.1335 2.85618 12.9092 2.63828 12.9092 2.37056C12.9092 2.10284 13.1335 1.88494 13.4092 1.88494Z" fill="white"/>
</svg>
