<svg width="21" height="17" viewBox="0 0 21 17" fill="none" xmlns="http://www.w3.org/2000/svg">
<path d="M21 2.27036C19.679 2.33058 19.7078 2.32566 19.5585 2.33803L20.3409 0.128186C20.3409 0.128186 17.8988 1.01672 17.2798 1.17566C15.6539 -0.269728 13.2372 -0.333591 11.5094 0.716737C10.0945 1.57706 9.33506 3.05446 9.58836 4.78129C6.83471 4.40334 4.5146 3.1123 2.68284 0.935898L2.10349 0.247671L1.67059 1.03399C1.12344 2.02759 0.941757 3.16364 1.15885 4.23283C1.24793 4.67147 1.39934 5.08983 1.60906 5.48156L1.11207 5.29108L1.05311 6.11242C0.993347 6.94676 1.27421 7.9207 1.80453 8.71748C1.95385 8.94187 2.14611 9.18829 2.3898 9.43138L2.13297 9.3924L2.44636 10.3335C2.85828 11.5701 3.71384 12.5267 4.82414 13.0586C3.71528 13.524 2.8195 13.8209 1.34711 14.3L0 14.738L1.24425 15.4109C1.71865 15.6674 3.395 16.5243 5.05133 16.7813C8.73312 17.3524 12.8784 16.8873 15.6691 14.4014C18.0196 12.3076 18.7909 9.32917 18.6307 6.22969C18.6065 5.76046 18.7365 5.31263 18.9966 4.96891C19.5178 4.28069 20.9968 2.27495 21 2.27036V2.27036ZM18.0127 4.23996C17.5806 4.8106 17.3642 5.5394 17.403 6.29181C17.5646 9.41823 16.7046 11.8428 14.8465 13.4978C12.6761 15.4313 9.17516 16.1902 5.24183 15.5799C4.5295 15.4695 3.7933 15.2221 3.184 14.9751C4.41847 14.555 5.37177 14.1805 6.91129 13.4598L9.06045 12.4537L6.68763 12.3035C5.55105 12.2315 4.60464 11.6867 4.0229 10.8021C4.33179 10.7844 4.62964 10.7349 4.9262 10.6532L7.18927 10.0298L4.9073 9.47702C3.79843 9.20841 3.16637 8.5522 2.83136 8.0489C2.61138 7.71818 2.46767 7.37937 2.38147 7.06703C2.61026 7.12773 2.87702 7.17099 3.30721 7.21314L5.41935 7.41978L3.74588 6.12858C2.54008 5.19838 2.05687 3.80085 2.41111 2.45735C6.17429 6.31795 10.5928 6.0278 11.0375 6.12985C10.9396 5.18934 10.9371 5.18713 10.9114 5.09759C10.3419 3.10612 11.5901 2.09493 12.1531 1.75264C13.3291 1.03779 15.1958 0.930035 16.4888 2.10777C16.768 2.36195 17.1457 2.46195 17.4991 2.37511C17.8163 2.29714 18.0767 2.21458 18.3316 2.12473L17.8009 3.62352L18.4783 3.62399C18.3505 3.79356 18.1972 3.99655 18.0127 4.23996Z" fill="white"/>
</svg>
